<?xml version="1.0" encoding="utf-8"?>
<!-- Svg Vector Icons : http://www.onlinewebfonts.com/icon -->
<!DOCTYPE svg PUBLIC "-//W3C//DTD SVG 1.1//EN" "http://www.w3.org/Graphics/SVG/1.1/DTD/svg11.dtd">
<svg version="1.1" xmlns="http://www.w3.org/2000/svg" xmlns:xlink="http://www.w3.org/1999/xlink" x="0px" y="0px" viewBox="0 0 256 256" enable-background="new 0 0 256 256" xml:space="preserve">
<metadata> Svg Vector Icons : http://www.onlinewebfonts.com/icon </metadata>
<g><g><g><path fill="#000000" d="M128,57.2c13,0,23.6-10.6,23.6-23.6S141,10,128,10s-23.6,10.6-23.6,23.6S115,57.2,128,57.2z M198.5,146.7c-4.6-21-12.5-55.3-24.1-69.5c-11.3-13.8-34-14.4-46.4-14.4l0,0c-12.4,0-35.2,0.6-46.5,14.4C69.9,91.4,62,125.7,57.5,146.7c-2.5,11.6,13.6,15.9,17.8,4.2c6.3-17.4,11.1-32,21.7-44.1c5.6,34.3-15,94-16.2,127.4c0,6.5,5.3,11.8,11.8,11.8c5,0,9.3-3.1,11-7.6c5.4-18.7,24.4-70.8,24.4-70.8l0,0l0,0c0,0,19,52.1,24.4,70.8c1.7,4.5,6,7.6,11,7.6c6.5,0,11.8-5.3,11.8-11.8c-1.2-33.4-21.8-93.1-16.2-127.4c10.6,12.1,15.4,26.7,21.7,44.1C184.9,162.5,201.1,158.3,198.5,146.7L198.5,146.7z"/></g></g></g>
</svg>